<svg width="393" height="393" viewBox="0 0 393 393" fill="none" xmlns="http://www.w3.org/2000/svg">
<circle cx="196.5" cy="196.5" r="196.5" fill="#0E0E11"/>
<path d="M175.621 358C175.621 358 91.1422 281.172 88.185 216.772C85.2277 152.372 118.617 138.082 125.086 133.439C131.555 128.796 198.588 111.165 249.816 73.2996C301.044 35.4341 295.178 41.2248 301.042 36.5474C306.907 31.8701 304.477 57.9941 289.906 83.3225C275.49 108.38 262.064 123.415 239.793 146.803C217.522 170.191 181.883 188.009 150.701 194.692C119.519 201.374 124.044 228.04 121.746 242.58C127.5 231.5 129.731 230.928 141.792 223.648C197.287 200.546 229.769 189.123 246.475 174.645C242.02 198.033 239.245 214.51 220.861 229.216C198.586 247.035 157.381 265.967 157.381 265.967C157.381 265.967 135.108 280.445 154.04 308.287C172.972 336.13 175.621 358 175.621 358Z" fill="url(#paint0_linear_48_39)"/>
<defs>
<linearGradient id="paint0_linear_48_39" x1="174.492" y1="358.565" x2="243.406" y2="99.8321" gradientUnits="userSpaceOnUse">
<stop stop-color="#4A90E2"/>
</linearGradient>
</defs>
</svg>
